HIERARCHY
ROOT Hips
{
	OFFSET 0.000000 8.830580 0.000000
	CHANNELS 6 Xposition Yposition Zposition Zrotation Yrotation Xrotation 
	JOINT Spine
	{
		OFFSET 0.000000 0.010000 0.000000
		CHANNELS 3 Zrotation Yrotation Xrotation
		JOINT Spine1
		{
			OFFSET 0.000000 2.459130 0.000000
			CHANNELS 3 Zrotation Yrotation Xrotation
			JOINT Neck
			{
				OFFSET 0.000000 2.484630 0.000000
				CHANNELS 3 Zrotation Yrotation Xrotation
				JOINT Head_virtual
				{
					OFFSET 0.000000 0.000000 0.000000
					CHANNELS 3 Zrotation Yrotation Xrotation
					JOINT Head
					{
						OFFSET 0.000000 0.927525 0.000000
						CHANNELS 3 Zrotation Yrotation Xrotation
						End Site
						{
							OFFSET 0.000000 0.000000 0.000000
						}
					}
				}
				JOINT LeftUpArm_virtual
				{
					OFFSET 0.000000 0.000000 0.000000
					CHANNELS 3 Zrotation Yrotation Xrotation
					JOINT LeftUpArm
					{
						OFFSET 1.248820 0.000000 0.000000
						CHANNELS 3 Zrotation Yrotation Xrotation
						JOINT LeftForeArm
						{
							OFFSET 2.597580 0.000000 0.000000
							CHANNELS 3 Zrotation Yrotation Xrotation
							JOINT LeftHand
							{
								OFFSET 2.455420 0.000000 0.000000
								CHANNELS 3 Zrotation Yrotation Xrotation
								End Site
								{
									OFFSET 0.000000 0.000000 0.000000
								}
							}
						}
					}
				}
				JOINT RightUpArm_virtual
				{
					OFFSET -0.000000 -0.000000 -0.000000
					CHANNELS 3 Zrotation Yrotation Xrotation
					JOINT RightUpArm
					{
						OFFSET -1.248820 -0.000000 -0.000000
						CHANNELS 3 Zrotation Yrotation Xrotation
						JOINT RightForeArm
						{
							OFFSET -2.597580 -0.000000 -0.000000
							CHANNELS 3 Zrotation Yrotation Xrotation
							JOINT RightHand
							{
								OFFSET -2.455420 -0.000000 -0.000000
								CHANNELS 3 Zrotation Yrotation Xrotation
								End Site
								{
									OFFSET 0.000000 0.000000 0.000000
								}
							}
						}
					}
				}
			}
		}
	}
	JOINT LeftUpLeg
	{
		OFFSET 1.271939 0.000000 0.000000
		CHANNELS 3 Zrotation Yrotation Xrotation
		JOINT LeftLowLeg
		{
			OFFSET 0.000000 -4.342910 0.000000
			CHANNELS 3 Zrotation Yrotation Xrotation
			JOINT LeftFoot
			{
				OFFSET 0.000000 -4.487670 0.000000
				CHANNELS 3 Zrotation Yrotation Xrotation
				JOINT LeftToeBase
				{
					OFFSET 0.000000 0.000000 1.515070
					CHANNELS 3 Zrotation Yrotation Xrotation
					End Site
					{
						OFFSET 0.000000 0.000000 0.000000
					}
				}
			}
		}
	}
	JOINT RightUpLeg
	{
		OFFSET -1.271939 0.000000 0.000000
		CHANNELS 3 Zrotation Yrotation Xrotation
		JOINT RightLowLeg
		{
			OFFSET 0.000000 -4.342910 0.000000
			CHANNELS 3 Zrotation Yrotation Xrotation
			JOINT RightFoot
			{
				OFFSET 0.000000 -4.487670 0.000000
				CHANNELS 3 Zrotation Yrotation Xrotation
				JOINT RightToeBase
				{
					OFFSET 0.000000 0.000000 1.515070
					CHANNELS 3 Zrotation Yrotation Xrotation
					End Site
					{
						OFFSET 0.000000 0.000000 0.000000
					}
				}
			}
		}
	}
}
MOTION
Frames: 15
Frame Time: 0.041667
-19.495178 4.542148 43.242945 170.660321 -7.518376 -178.381630 -1.933807 -0.321931 20.217233 -7.541675 -2.954175 8.596481 0.000000 0.000000 0.000000 -5.287660 7.064638 -14.663393 -3.850761 7.311843 -66.842367 -10.314700 2.297300 3.816130 -24.009100 -43.255901 -28.910299 -180.000000 -56.203003 180.000000 29.187500 4.216210 13.759100 17.141899 -0.649079 9.991490 4.607490 50.055199 -30.636700 -180.000000 69.600998 180.000000 -17.289900 3.954840 4.025500 -3.671938 -15.538650 -80.917554 0.000000 0.000000 110.316002 6.728240 -3.974820 -19.375662 0.000000 0.000000 -35.504299 -4.351586 -17.513282 -24.623147 0.000000 0.000000 132.839996 4.178455 11.422800 -18.711560 0.000000 0.000000 -52.275902 
-19.516308 4.549747 43.226840 170.587107 -7.799717 -178.197875 -2.395901 -0.083781 20.197223 -7.286974 -2.963839 8.771505 0.000000 0.000000 0.000000 -5.268960 6.931741 -14.997702 -3.547522 7.096344 -66.993211 -10.321900 1.782060 4.079320 -25.001101 -42.514099 -26.773199 180.000000 -57.959000 -180.000000 29.128300 4.597330 14.424400 17.777300 -0.933327 11.170500 4.739710 47.723499 -29.681601 180.000000 71.467003 180.000000 -16.859600 5.066260 4.328370 -3.883577 -16.097323 -80.864751 0.000000 0.000000 110.211998 6.754616 -3.515841 -19.452985 0.000000 0.000000 -35.535900 -4.822886 -17.664211 -24.398755 0.000000 0.000000 132.615005 4.030019 11.835542 -18.618173 0.000000 0.000000 -52.794899 
-19.540072 4.565687 43.206124 170.376847 -8.067380 -177.951077 -2.783034 -0.015312 19.936600 -7.701289 -3.073893 9.259940 0.000000 0.000000 0.000000 -4.976076 6.865387 -15.686738 -3.381917 7.138029 -66.794798 -9.903410 1.426990 4.345560 -26.032801 -41.811699 -24.461901 180.000000 -59.818001 -180.000000 29.772699 5.244520 14.090800 18.783899 -1.170940 12.455800 4.868640 45.663502 -28.688200 -180.000000 73.047997 -180.000000 -17.210400 5.219030 5.004460 -4.178572 -16.710853 -80.711387 0.000000 0.000000 109.972000 6.683462 -3.152459 -19.525243 0.000000 0.000000 -35.468100 -5.437460 -17.853723 -24.131884 0.000000 0.000000 132.240997 3.641078 11.967341 -18.563592 0.000000 0.000000 -53.662201 
-19.564987 4.591351 43.176372 170.081027 -8.442655 -177.883163 -3.392566 0.070397 19.814015 -7.923165 -3.294865 9.557617 0.000000 0.000000 0.000000 -4.697577 6.830693 -15.875129 -3.290601 7.204619 -66.842181 -9.636030 0.965279 4.794970 -27.101299 -41.015701 -21.704201 180.000000 -61.941002 -180.000000 30.898701 6.277440 12.990900 19.818300 -1.412920 14.036600 5.383610 43.432301 -27.510799 180.000000 74.480003 -180.000000 -17.342899 5.813890 5.431920 -4.603990 -17.419851 -80.198337 0.000000 0.000000 109.624001 6.560175 -2.870030 -19.572849 0.000000 0.000000 -35.361000 -6.216272 -18.167087 -23.448674 0.000000 0.000000 131.608002 2.463680 11.576686 -18.580467 0.000000 0.000000 -56.454800 
-19.592440 4.628088 43.143445 169.757874 -8.660525 -177.808402 -4.003104 0.195311 19.604918 -8.315824 -3.476771 9.890326 0.000000 0.000000 0.000000 -4.372157 6.818532 -16.037332 -3.190569 7.310266 -66.872191 -9.271530 0.532678 5.145250 -28.354700 -40.149601 -18.738701 -180.000000 -64.152000 180.000000 31.579800 7.969010 9.937460 20.969000 -1.519270 15.748300 5.872050 41.100300 -26.386900 -180.000000 75.740997 -180.000000 -17.614100 6.488930 5.483680 -5.189465 -17.888716 -79.525497 0.000000 0.000000 109.180000 6.448107 -2.552665 -19.544981 0.000000 0.000000 -35.346600 -7.045359 -18.102728 -22.694112 0.000000 0.000000 130.682999 2.723199 12.363823 -18.196361 0.000000 0.000000 -58.560902 
-19.619536 4.672838 43.105318 169.548913 -8.722813 -177.845150 -4.558608 0.389544 19.533770 -8.673584 -3.589920 9.933449 0.000000 0.000000 0.000000 -4.352641 6.970716 -15.873979 -2.787737 7.318253 -67.123116 -9.113610 0.088823 5.668230 -29.292101 -39.257401 -16.074400 180.000000 -66.489998 -180.000000 31.419800 9.254210 7.838350 22.140499 -1.914360 17.680799 6.562430 39.173000 -25.360201 -180.000000 77.037003 -180.000000 -17.233999 7.242370 5.581790 -5.750456 -18.157620 -78.595549 0.000000 0.000000 108.674004 6.464028 -2.150611 -19.689940 0.000000 0.000000 -35.316401 -7.752037 -17.577956 -21.744153 0.000000 0.000000 129.557999 2.720981 13.193645 -18.420881 0.000000 0.000000 -59.105099 
-19.642436 4.721677 43.064111 169.598064 -8.667807 -177.810395 -4.996104 0.620104 19.273974 -8.807198 -3.598010 10.023561 0.000000 0.000000 0.000000 -4.450083 7.043117 -15.757434 -2.372749 7.203041 -67.341654 -9.117410 -0.424346 5.917510 -30.224400 -38.089600 -13.489400 180.000000 -68.695999 -180.000000 30.821501 10.292800 7.135080 22.596800 -1.926610 18.235800 9.248430 37.048199 -22.401699 180.000000 78.046997 180.000000 -17.089701 7.743430 5.185860 -6.063239 -18.188712 -77.760285 0.000000 0.000000 108.242996 6.613810 -1.791029 -19.931949 0.000000 0.000000 -35.305201 -7.990871 -16.778202 -20.897031 0.000000 0.000000 128.177994 2.361776 13.755388 -18.795758 0.000000 0.000000 -60.069801 
-19.665618 4.774062 43.024307 169.797021 -8.547637 -177.606221 -5.208369 0.807727 18.981559 -8.948239 -3.557435 9.818797 0.000000 0.000000 0.000000 -4.811411 7.161610 -15.703598 -1.817509 6.973850 -67.484837 -9.256910 -0.789046 6.435100 -30.740200 -37.040401 -11.010600 180.000000 -70.772003 180.000000 30.849501 11.419600 4.381870 24.541500 -3.163960 22.051500 6.349740 36.349899 -24.350500 -180.000000 79.887001 -180.000000 -17.484200 8.277360 3.719040 -6.175269 -18.207499 -77.142495 0.000000 0.000000 107.808998 6.799968 -1.349321 -20.128622 0.000000 0.000000 -35.407301 -7.909698 -16.049541 -20.395218 0.000000 0.000000 126.795998 2.511654 14.306650 -18.948555 0.000000 0.000000 -60.761200 
-19.689600 4.834040 42.987439 169.966993 -8.340380 -177.398743 -5.268165 0.908782 18.704239 -9.432051 -3.506556 9.801020 0.000000 0.000000 0.000000 -4.873487 7.190625 -16.160627 -1.635376 6.922778 -67.504972 -9.257670 -0.750052 6.220040 -31.542299 -35.987400 -7.655690 -180.000000 -72.674004 -180.000000 31.379801 12.875300 -0.490992 25.573900 -3.334190 24.777201 6.113340 34.935699 -24.883499 180.000000 81.041496 180.000000 -17.081900 8.260950 2.281420 -6.296849 -18.235436 -76.450830 0.000000 0.000000 107.242996 7.013649 -0.770175 -20.268811 0.000000 0.000000 -35.501301 -7.801123 -15.454330 -20.188929 0.000000 0.000000 125.608002 2.817823 14.437855 -18.783093 0.000000 0.000000 -60.703300 
-19.718177 4.902614 42.960692 170.102619 -7.950119 -176.926496 -5.335848 0.934092 18.307020 -9.824729 -3.523229 9.835523 0.000000 0.000000 0.000000 -5.128323 7.198820 -17.189728 -1.666093 6.843676 -67.273883 -9.360090 -0.435855 5.708940 -32.304901 -34.846199 -4.397370 180.000000 -74.258003 -180.000000 31.292601 14.338100 -5.622030 26.509199 -3.561370 25.603600 6.597800 33.924500 -23.399799 180.000000 82.465401 180.000000 -16.888300 8.300270 0.753590 -6.343522 -18.286654 -76.028524 0.000000 0.000000 106.519997 7.129554 -0.104848 -20.227735 0.000000 0.000000 -35.484301 -7.682264 -14.828719 -20.701216 0.000000 0.000000 124.637001 3.368210 14.482171 -18.022021 0.000000 0.000000 -60.596699 
-19.747684 4.981226 42.936541 170.307088 -7.576205 -176.564333 -5.227178 0.866419 18.077038 -10.303304 -3.542233 9.856227 0.000000 0.000000 0.000000 -5.115276 7.105939 -18.246335 -1.871877 6.835305 -67.074297 -9.576440 -0.291800 5.675770 -32.646099 -33.685101 -2.440630 180.000000 -75.392998 -180.000000 29.730900 15.742900 -8.427020 26.581301 -3.380470 25.751600 8.858550 33.100700 -20.809099 -180.000000 83.825302 180.000000 -17.174900 8.166370 -0.025497 -6.343000 -18.397398 -75.445481 0.000000 0.000000 105.648003 7.257965 0.625756 -20.069047 0.000000 0.000000 -35.543800 -7.616038 -14.234548 -21.177689 0.000000 0.000000 123.526001 3.591503 14.413789 -17.056827 0.000000 0.000000 -60.905800 
-19.778348 5.068710 42.918402 170.623071 -7.015673 -176.108769 -5.012756 0.857126 17.818360 -10.661935 -3.457271 9.853852 0.000000 0.000000 0.000000 -5.346264 7.078513 -19.383129 -1.900005 6.749889 -66.840591 -9.750470 -0.297328 5.846680 -33.134201 -32.476299 -1.263660 180.000000 -76.267998 -180.000000 27.512899 16.645100 -11.063300 27.384899 -3.450480 27.152901 8.236240 32.661499 -20.518900 -180.000000 85.386002 -180.000000 -17.449600 8.072260 -0.632465 -6.231130 -18.313197 -74.928759 0.000000 0.000000 104.644997 7.376294 1.322335 -19.866712 0.000000 0.000000 -35.558399 -7.494938 -13.454348 -21.760523 0.000000 0.000000 122.218002 3.903245 14.679956 -16.175998 0.000000 0.000000 -61.193199 
-19.806743 5.165431 42.902112 170.945196 -6.407843 -175.697353 -4.843188 0.911358 17.664908 -10.892560 -3.338768 9.791664 0.000000 0.000000 0.000000 -5.278151 7.030699 -20.243563 -2.143519 6.802311 -66.721003 -9.794650 -0.266942 6.009680 -34.014900 -31.508400 0.380277 -180.000000 -77.277000 180.000000 28.104200 16.977600 -11.518100 27.198099 -3.359060 27.011900 10.275500 32.408100 -18.243000 180.000000 86.895302 180.000000 -17.338301 8.353630 0.512444 -6.150778 -18.068501 -74.284037 0.000000 0.000000 103.500000 7.526011 1.910077 -19.591729 0.000000 0.000000 -35.524401 -7.461092 -12.800455 -22.007574 0.000000 0.000000 120.588997 3.883393 14.822297 -15.949348 0.000000 0.000000 -60.725300 
-19.833553 5.268254 42.883412 171.196625 -5.729401 -174.952709 -4.949489 1.071428 16.838231 -10.673161 -3.168045 10.353297 0.000000 0.000000 0.000000 -5.587832 7.015486 -21.365382 -2.174123 6.717602 -66.567283 -9.891500 -0.261316 5.971930 -34.995098 -30.709999 2.012760 180.000000 -78.379997 -180.000000 29.044701 17.827999 -11.823700 27.121901 -3.257140 26.908100 11.296800 32.433102 -16.947700 -180.000000 88.484802 -180.000000 -16.782499 8.713480 1.790700 -6.045051 -17.713817 -73.873992 0.000000 0.000000 102.250000 7.706506 2.400932 -19.315228 0.000000 0.000000 -35.470501 -7.498009 -12.214281 -22.427592 0.000000 0.000000 118.760002 4.024760 15.287765 -15.676002 0.000000 0.000000 -60.724701 
-19.866494 5.386448 42.851816 171.912775 -5.710893 -175.122336 -4.188424 0.730446 16.846609 -10.950418 -3.083330 10.935325 0.000000 0.000000 0.000000 -5.077950 6.908671 -21.943817 -2.622855 6.858629 -67.013734 -10.254900 -0.201251 6.322370 -35.144299 -30.235701 3.198440 180.000000 -79.690002 -180.000000 29.500099 18.378201 -12.133400 27.760900 -3.240490 28.118500 10.677700 32.579800 -17.393499 -180.000000 89.987801 -180.000000 -15.695700 8.504980 0.369638 -5.793095 -17.845226 -72.452886 0.000000 0.000000 100.858002 7.980674 2.904902 -18.948775 0.000000 0.000000 -35.547899 -7.387954 -12.114723 -21.532201 0.000000 0.000000 116.305000 4.092200 16.003892 -15.065612 0.000000 0.000000 -60.899700 
